<svg width="24" height="24" viewBox="0 0 24 24" fill="none" xmlns="http://www.w3.org/2000/svg">
<path fill-rule="evenodd" clip-rule="evenodd" d="M6.6 0C7.26274 0 7.8 0.511675 7.8 1.14286V2.28571H16.2V1.14286C16.2 0.511675 16.7373 0 17.4 0C18.0627 0 18.6 0.511675 18.6 1.14286V2.31393C21.632 2.60063 24 5.03694 24 8V18.2857C24 21.4416 21.3137 24 18 24H6C2.68629 24 0 21.4416 0 18.2857V8C0 5.03694 2.36801 2.60063 5.4 2.31393V1.14286C5.4 0.511675 5.93726 0 6.6 0ZM2.60485 6.85714H21.3952C20.9009 5.52549 19.5675 4.57143 18 4.57143H6C4.43254 4.57143 3.09905 5.52549 2.60485 6.85714ZM21.6 9.14286H2.4V18.2857C2.4 20.1793 4.01178 21.7143 6 21.7143H18C19.9882 21.7143 21.6 20.1793 21.6 18.2857V9.14286ZM12 10.8571C12.6627 10.8571 13.2 11.3688 13.2 12V14.2857H15.6C16.2627 14.2857 16.8 14.7974 16.8 15.4286C16.8 16.0598 16.2627 16.5714 15.6 16.5714H13.2V18.8571C13.2 19.4883 12.6627 20 12 20C11.3373 20 10.8 19.4883 10.8 18.8571V16.5714H8.4C7.73726 16.5714 7.2 16.0598 7.2 15.4286C7.2 14.7974 7.73726 14.2857 8.4 14.2857H10.8V12C10.8 11.3688 11.3373 10.8571 12 10.8571Z" fill="#ADADAD"/>
</svg>
