<svg width="24" height="25" viewBox="0 0 24 25" fill="none" xmlns="http://www.w3.org/2000/svg">
<path fill-rule="evenodd" clip-rule="evenodd" d="M15.7158 17.5459H8.49585C8.08185 17.5459 7.74585 17.1986 7.74585 16.7706C7.74585 16.3427 8.08185 15.9954 8.49585 15.9954H15.7158C16.1298 15.9954 16.4658 16.3427 16.4658 16.7706C16.4658 17.1986 16.1298 17.5459 15.7158 17.5459Z" fill="#1D24CA"/>
<path fill-rule="evenodd" clip-rule="evenodd" d="M15.7158 13.2183H8.49585C8.08185 13.2183 7.74585 12.871 7.74585 12.443C7.74585 12.0151 8.08185 11.6677 8.49585 11.6677H15.7158C16.1298 11.6677 16.4658 12.0151 16.4658 12.443C16.4658 12.871 16.1298 13.2183 15.7158 13.2183Z" fill="#1D24CA"/>
<path fill-rule="evenodd" clip-rule="evenodd" d="M11.2505 8.90066H8.49548C8.08148 8.90066 7.74548 8.55333 7.74548 8.12538C7.74548 7.69742 8.08148 7.3501 8.49548 7.3501H11.2505C11.6645 7.3501 12.0005 7.69742 12.0005 8.12538C12.0005 8.55333 11.6645 8.90066 11.2505 8.90066Z" fill="#1D24CA"/>
<mask id="mask0_1_418" style="mask-type:luminance" maskUnits="userSpaceOnUse" x="3" y="2" width="19" height="21">
<path fill-rule="evenodd" clip-rule="evenodd" d="M3 2.06763H21.1647V22.6485H3V2.06763Z" fill="white"/>
</mask>
<g mask="url(#mask0_1_418)">
<path fill-rule="evenodd" clip-rule="evenodd" d="M15.9088 3.61794L8.21976 3.62208C5.89176 3.63655 4.49976 5.12509 4.49976 7.60496V17.1109C4.49976 19.6073 5.90476 21.0979 8.25576 21.0979L15.9448 21.0948C18.2728 21.0804 19.6648 19.5898 19.6648 17.1109V7.60496C19.6648 5.10855 18.2608 3.61794 15.9088 3.61794ZM8.25676 22.6485C5.11276 22.6485 2.99976 20.4229 2.99976 17.1109V7.60496C2.99976 4.26298 5.04676 2.09116 8.21476 2.07152L15.9078 2.06738H15.9088C19.0528 2.06738 21.1648 4.29296 21.1648 7.60496V17.1109C21.1648 20.4519 19.1178 22.6247 15.9498 22.6454L8.25676 22.6485Z" fill="#1D24CA"/>
</g>
</svg>
