<svg width="276" height="25" viewBox="0 0 276 25" fill="none" xmlns="http://www.w3.org/2000/svg">
<path d="M9.14373 20.7821V17.7152C9.14372 16.9381 9.77567 16.3067 10.5584 16.3018H13.4326C14.2189 16.3018 14.8563 16.9346 14.8563 17.7152V20.7732C14.8562 21.4473 15.404 21.9951 16.0829 22H18.0438C18.9596 22.0023 19.8388 21.6428 20.4872 21.0007C21.1356 20.3586 21.5 19.4868 21.5 18.5775V9.86585C21.5 9.13139 21.1721 8.43471 20.6046 7.9635L13.943 2.67427C12.7785 1.74912 11.1154 1.77901 9.98539 2.74538L3.46701 7.9635C2.87274 8.42082 2.51755 9.11956 2.5 9.86585V18.5686C2.5 20.4637 4.04738 22 5.95617 22H7.87229C8.19917 22.0023 8.51349 21.8751 8.74547 21.6464C8.97746 21.4178 9.10793 21.1067 9.10792 20.7821H9.14373Z" fill="#1D24CA"/>
<path d="M71.9026 9.8512L67.4593 13.4642C66.6198 14.1302 65.4387 14.1302 64.5992 13.4642L60.1184 9.8512" stroke="#ADADAD" stroke-width="1.5" stroke-linecap="round" stroke-linejoin="round"/>
<path fill-rule="evenodd" clip-rule="evenodd" d="M70.9089 22C73.9502 22.0084 76 19.5095 76 16.4384V9.57001C76 6.49883 73.9502 4 70.9089 4H61.0911C58.0498 4 56 6.49883 56 9.57001V16.4384C56 19.5095 58.0498 22.0084 61.0911 22H70.9089Z" stroke="#ADADAD" stroke-width="1.5" stroke-linecap="round" stroke-linejoin="round"/>
<path fill-rule="evenodd" clip-rule="evenodd" d="M263.985 15.3462C260.117 15.3462 256.814 15.931 256.814 18.2729C256.814 20.6148 260.096 21.2205 263.985 21.2205C267.852 21.2205 271.154 20.6348 271.154 18.2938C271.154 15.9529 267.873 15.3462 263.985 15.3462Z" stroke="#ADADAD" stroke-width="1.5" stroke-linecap="round" stroke-linejoin="round"/>
<path fill-rule="evenodd" clip-rule="evenodd" d="M263.985 12.0059C266.523 12.0059 268.58 9.94779 268.58 7.40969C268.58 4.8716 266.523 2.81445 263.985 2.81445C261.447 2.81445 259.389 4.8716 259.389 7.40969C259.38 9.93922 261.424 11.9973 263.952 12.0059H263.985Z" stroke="#ADADAD" stroke-width="1.42857" stroke-linecap="round" stroke-linejoin="round"/>
</svg>
