<svg width="13" height="13" viewBox="0 0 13 13" fill="none" xmlns="http://www.w3.org/2000/svg">
<path fill-rule="evenodd" clip-rule="evenodd" d="M1.89587 5.5887C1.89587 3.09711 3.97798 1.08325 6.49649 1.08325C9.02211 1.08325 11.1042 3.09711 11.1042 5.5887C11.1042 6.84425 10.6476 8.00988 9.89602 8.99786C9.0669 10.0877 8.04496 11.0372 6.89467 11.7825C6.6314 11.9547 6.39381 11.9677 6.10487 11.7825C4.94802 11.0372 3.92609 10.0877 3.10406 8.99786C2.35195 8.00988 1.89587 6.84425 1.89587 5.5887ZM4.98025 5.72898C4.98025 6.56366 5.66135 7.22014 6.49649 7.22014C7.33217 7.22014 8.01983 6.56366 8.01983 5.72898C8.01983 4.90079 7.33217 4.21235 6.49649 4.21235C5.66135 4.21235 4.98025 4.90079 4.98025 5.72898Z" fill="#3B4453"/>
</svg>
