<svg width="10" height="10" viewBox="0 0 10 10" fill="none" xmlns="http://www.w3.org/2000/svg">
<path d="M7.46599 5.96675C7.35808 6.07133 7.30849 6.22258 7.33308 6.37091L7.7035 8.42091C7.73475 8.59466 7.66141 8.7705 7.51599 8.87092C7.37349 8.97508 7.18391 8.98758 7.02849 8.90425L5.18308 7.94175C5.11891 7.90758 5.04766 7.88925 4.97474 7.88717H4.86183C4.82266 7.893 4.78433 7.9055 4.74933 7.92466L2.90349 8.89175C2.81224 8.93758 2.70891 8.95383 2.60766 8.93758C2.36099 8.89092 2.19641 8.65592 2.23683 8.408L2.60766 6.358C2.63224 6.20842 2.58266 6.05633 2.47474 5.95008L0.970161 4.49175C0.844328 4.36966 0.800578 4.18633 0.858078 4.02091C0.913911 3.85591 1.05641 3.7355 1.22849 3.70841L3.29933 3.408C3.45683 3.39175 3.59516 3.29591 3.66599 3.15425L4.57849 1.28341C4.60016 1.24175 4.62808 1.20341 4.66183 1.17091L4.69933 1.14175C4.71891 1.12008 4.74141 1.10216 4.76641 1.08758L4.81183 1.07091L4.88266 1.04175H5.05808C5.21474 1.058 5.35266 1.15175 5.42474 1.29175L6.34933 3.15425C6.41599 3.2905 6.54558 3.38508 6.69516 3.408L8.76599 3.70841C8.94099 3.73341 9.08724 3.85425 9.14516 4.02091C9.19974 4.188 9.15266 4.37133 9.02433 4.49175L7.46599 5.96675Z" fill="#1D24CA"/>
</svg>
