<svg width="130" height="130" viewBox="0 0 130 130" fill="none" xmlns="http://www.w3.org/2000/svg">
<path d="M71.4425 129.982H58.5396C47.7827 129.982 39.065 121.264 39.065 110.508V97.3107C39.065 93.7845 36.2066 90.9172 32.6714 90.9172H19.4746C8.71771 90.9172 0 82.1994 0 71.4425V58.5396C0 47.7827 8.71771 39.065 19.4746 39.065H27.0436C29.8219 39.065 32.0748 41.3179 32.0748 44.0962C32.0748 46.8744 29.8219 49.1273 27.0436 49.1273H19.4746C14.2743 49.1273 10.0534 53.3482 10.0534 58.5485V71.4514C10.0534 76.6518 14.2743 80.8726 19.4746 80.8726H32.6714C41.7542 80.8726 49.1273 88.2368 49.1273 97.3286V110.525C49.1273 115.726 53.3481 119.947 58.5485 119.947H71.4514C76.6518 119.947 80.8726 115.726 80.8726 110.525V100.766C80.8726 92.5289 77.6669 84.7818 71.8432 78.9581L51.0597 58.1656C43.3393 50.4363 39.0828 40.1692 39.0828 29.2431V19.4746C39.0828 8.71772 47.8005 0 58.5574 0H71.4603C82.2172 0 90.935 8.71772 90.935 19.4746V32.6714C90.935 36.1977 93.7934 39.065 97.3285 39.065H110.525C121.282 39.065 130 47.7827 130 58.5396V71.4425C130 82.1994 121.282 90.9172 110.525 90.9172H102.965C100.187 90.9172 97.934 88.6643 97.934 85.886C97.934 83.1077 100.187 80.8548 102.965 80.8548H110.525C115.726 80.8548 119.947 76.634 119.947 71.4336V58.5307C119.947 53.3303 115.726 49.1095 110.525 49.1095H97.3108C88.2279 49.1095 80.8637 41.7453 80.8637 32.6625V19.4746C80.8637 14.2743 76.6429 10.0534 71.4425 10.0534H58.5396C53.3392 10.0534 49.1184 14.2654 49.1184 19.4746V29.2342C49.1184 37.471 52.3241 45.2181 58.1478 51.0418L78.9314 71.8254C86.6607 79.5458 90.9083 89.8219 90.9083 100.748V110.508C90.9172 121.256 82.1994 129.982 71.4425 129.982Z" fill="white"/>
</svg>
