<svg width="24" height="25" viewBox="0 0 24 25" fill="none" xmlns="http://www.w3.org/2000/svg">
<path fill-rule="evenodd" clip-rule="evenodd" d="M12 3.61794C7.313 3.61794 3.5 7.55947 3.5 12.4045C3.5 17.2494 7.313 21.191 12 21.191C16.687 21.191 20.5 17.2494 20.5 12.4045C20.5 7.55947 16.687 3.61794 12 3.61794ZM12 22.7415C6.486 22.7415 2 18.1043 2 12.4045C2 6.7046 6.486 2.06738 12 2.06738C17.514 2.06738 22 6.7046 22 12.4045C22 18.1043 17.514 22.7415 12 22.7415Z" fill="#FE5C5C"/>
<path fill-rule="evenodd" clip-rule="evenodd" d="M11.9941 13.8236C11.5801 13.8236 11.2441 13.4763 11.2441 13.0483V8.48036C11.2441 8.0524 11.5801 7.70508 11.9941 7.70508C12.4081 7.70508 12.7441 8.0524 12.7441 8.48036V13.0483C12.7441 13.4763 12.4081 13.8236 11.9941 13.8236Z" fill="#FE5C5C"/>
<path fill-rule="evenodd" clip-rule="evenodd" d="M12.0039 17.3618C11.4509 17.3618 10.9989 16.8998 10.9989 16.3281C10.9989 15.7565 11.4419 15.2944 11.9939 15.2944H12.0039C12.5569 15.2944 13.0039 15.7565 13.0039 16.3281C13.0039 16.8998 12.5569 17.3618 12.0039 17.3618Z" fill="#FE5C5C"/>
</svg>
