<svg width="24" height="24" viewBox="0 0 24 24" fill="none" xmlns="http://www.w3.org/2000/svg">
<g clip-path="url(#clip0_75_81)">
<path fill-rule="evenodd" clip-rule="evenodd" d="M8.6 1C9.26274 1 9.8 1.51167 9.8 2.14286V3.28571H18.2V2.14286C18.2 1.51167 18.7373 1 19.4 1C20.0627 1 20.6 1.51167 20.6 2.14286V3.31393C23.632 3.60063 26 6.03694 26 9V19.2857C26 22.4416 23.3137 25 20 25H8C4.68629 25 2 22.4416 2 19.2857V9C2 6.03694 4.36801 3.60063 7.4 3.31393V2.14286C7.4 1.51167 7.93726 1 8.6 1ZM4.60485 7.85714H23.3952C22.9009 6.52549 21.5675 5.57143 20 5.57143H8C6.43254 5.57143 5.09905 6.52549 4.60485 7.85714ZM23.6 10.1429H4.4V19.2857C4.4 21.1793 6.01178 22.7143 8 22.7143H20C21.9882 22.7143 23.6 21.1793 23.6 19.2857V10.1429ZM14 11.8571C14.6627 11.8571 15.2 12.3688 15.2 13V15.2857H17.6C18.2627 15.2857 18.8 15.7974 18.8 16.4286C18.8 17.0598 18.2627 17.5714 17.6 17.5714H15.2V19.8571C15.2 20.4883 14.6627 21 14 21C13.3373 21 12.8 20.4883 12.8 19.8571V17.5714H10.4C9.73726 17.5714 9.2 17.0598 9.2 16.4286C9.2 15.7974 9.73726 15.2857 10.4 15.2857H12.8V13C12.8 12.3688 13.3373 11.8571 14 11.8571Z" fill="#ADADAD"/>
</g>
<defs>
<clipPath id="clip0_75_81">
<rect width="24" height="24" fill="white"/>
</clipPath>
</defs>
</svg>
