<svg width="16" height="17" viewBox="0 0 16 17" fill="none" xmlns="http://www.w3.org/2000/svg">
<path d="M10.9731 4.50363L3.70717 11.5545C3.44546 11.8043 3.29844 12.1431 3.29844 12.4964C3.29844 12.8497 3.44546 13.1885 3.70717 13.4383C3.96887 13.6881 4.32382 13.8285 4.69393 13.8285C5.06404 13.8285 5.41898 13.6881 5.68069 13.4383L14.3421 5.05539C14.6013 4.808 14.8069 4.51431 14.9472 4.19109C15.0874 3.86786 15.1596 3.52143 15.1596 3.17157C15.1596 2.82171 15.0874 2.47528 14.9472 2.15206C14.8069 1.82883 14.6013 1.53514 14.3421 1.28775C14.083 1.04037 13.7753 0.84413 13.4367 0.710246C13.0981 0.576361 12.7351 0.507452 12.3686 0.507452C12.0021 0.507452 11.6392 0.576361 11.3006 0.710246C10.9619 0.84413 10.6543 1.04037 10.3951 1.28775L1.73364 9.67068C0.948525 10.4201 0.507452 11.4365 0.507452 12.4964C0.507452 13.5563 0.948525 14.5727 1.73364 15.3221C2.51876 16.0716 3.58361 16.4926 4.69393 16.4926C5.80425 16.4926 6.8691 16.0716 7.65421 15.3221L14.8107 8.49982" stroke="#ADADAD" stroke-linecap="round" stroke-linejoin="round"/>
</svg>
