<svg width="23" height="23" viewBox="0 0 23 23" fill="none" xmlns="http://www.w3.org/2000/svg">
<path d="M19.4062 11.2604H19.2721C18.721 8.7975 16.5217 6.94792 13.8958 6.94792H12.2187V6.33458C13.0525 6.0375 13.6562 5.24688 13.6562 4.3125C13.6562 3.12417 12.6883 2.15625 11.5 2.15625C10.3117 2.15625 9.34375 3.12417 9.34375 4.3125C9.34375 5.24688 9.9475 6.0375 10.7812 6.33458V6.94792H9.10417C6.47833 6.94792 4.27896 8.7975 3.72792 11.2604H3.59375C2.80312 11.2604 2.15625 11.9073 2.15625 12.6979V14.1354C2.15625 14.926 2.80312 15.5729 3.59375 15.5729H3.85729C4.42271 17.3362 5.85062 18.7067 7.64271 19.205C7.50854 19.4877 7.42708 19.7944 7.42708 20.125C7.42708 20.5227 7.74812 20.8438 8.14583 20.8438H14.8542C15.2519 20.8438 15.5729 20.5227 15.5729 20.125C15.5729 19.7944 15.4915 19.4829 15.3573 19.205C17.1494 18.7115 18.5773 17.3362 19.1427 15.5729H19.4062C20.1969 15.5729 20.8437 14.926 20.8437 14.1354V12.6979C20.8437 11.9073 20.1969 11.2604 19.4062 11.2604ZM11.5 3.59375C11.8977 3.59375 12.2187 3.91479 12.2187 4.3125C12.2187 4.71021 11.8977 5.03125 11.5 5.03125C11.1023 5.03125 10.7812 4.71021 10.7812 4.3125C10.7812 3.91479 11.1023 3.59375 11.5 3.59375ZM13.8958 17.9688H9.10417C6.85687 17.9688 5.03125 16.1431 5.03125 13.8958V12.4583C5.03125 10.211 6.85687 8.38542 9.10417 8.38542H13.8958C16.1431 8.38542 17.9687 10.211 17.9687 12.4583V13.8958C17.9687 16.1431 16.1431 17.9688 13.8958 17.9688Z" fill="white"/>
<path d="M8.86458 10.3021C8.07396 10.3021 7.42708 10.949 7.42708 11.7396V13.1771C7.42708 13.9677 8.07396 14.6146 8.86458 14.6146C9.65521 14.6146 10.3021 13.9677 10.3021 13.1771V11.7396C10.3021 10.949 9.65521 10.3021 8.86458 10.3021Z" fill="white"/>
<path d="M14.1354 10.3021C13.3448 10.3021 12.6979 10.949 12.6979 11.7396V13.1771C12.6979 13.9677 13.3448 14.6146 14.1354 14.6146C14.926 14.6146 15.5729 13.9677 15.5729 13.1771V11.7396C15.5729 10.949 14.926 10.3021 14.1354 10.3021Z" fill="white"/>
<path d="M6.48312 3.55542L7.92062 4.03458C7.99729 4.05854 8.07396 4.07292 8.14583 4.07292C8.44771 4.07292 8.72562 3.88125 8.82625 3.57938C8.95083 3.20083 8.74958 2.79354 8.37104 2.66896L6.93354 2.18979C6.55979 2.06521 6.1525 2.26646 6.02312 2.645C5.89375 3.02354 6.09979 3.43083 6.47833 3.55542H6.48312Z" fill="white"/>
<path d="M6.70833 6.46875C6.785 6.46875 6.86167 6.45917 6.93354 6.43042L8.37104 5.95125C8.74958 5.82667 8.95083 5.41938 8.82625 5.04083C8.70167 4.66229 8.29437 4.46104 7.91583 4.58563L6.47833 5.06479C6.09979 5.18938 5.89854 5.59667 6.02312 5.97521C6.12375 6.27708 6.40167 6.46875 6.70354 6.46875H6.70833Z" fill="white"/>
<path d="M14.8542 4.07292C14.9308 4.07292 15.0075 4.06333 15.0794 4.03458L16.5169 3.55542C16.8954 3.43083 17.0967 3.02354 16.9721 2.645C16.8475 2.26646 16.4402 2.06521 16.0617 2.18979L14.6242 2.66896C14.2456 2.79354 14.0444 3.20083 14.169 3.57938C14.2696 3.88125 14.5475 4.07292 14.8494 4.07292H14.8542Z" fill="white"/>
<path d="M14.629 5.95125L16.0665 6.43042C16.1431 6.45438 16.2198 6.46875 16.2917 6.46875C16.5935 6.46875 16.8715 6.27708 16.9721 5.97521C17.0967 5.59667 16.8954 5.18938 16.5169 5.06479L15.0794 4.58563C14.7056 4.46104 14.2935 4.66229 14.169 5.04083C14.0444 5.41938 14.2456 5.82667 14.6242 5.95125H14.629Z" fill="white"/>
</svg>
