<svg width="10" height="10" viewBox="0 0 10 10" fill="none" xmlns="http://www.w3.org/2000/svg">
<path fill-rule="evenodd" clip-rule="evenodd" d="M1.45837 4.29911C1.45837 2.3825 3.05999 0.833374 4.99731 0.833374C6.94009 0.833374 8.54171 2.3825 8.54171 4.29911C8.54171 5.26491 8.19046 6.16155 7.61233 6.92153C6.97454 7.75984 6.18844 8.49024 5.3036 9.06355C5.10109 9.19605 4.91832 9.20605 4.69606 9.06355C3.80618 8.49024 3.02008 7.75984 2.38775 6.92153C1.8092 6.16155 1.45837 5.26491 1.45837 4.29911ZM3.83097 4.40702C3.83097 5.04908 4.3549 5.55407 4.99731 5.55407C5.64014 5.55407 6.16911 5.04908 6.16911 4.40702C6.16911 3.76995 5.64014 3.24038 4.99731 3.24038C4.3549 3.24038 3.83097 3.76995 3.83097 4.40702Z" fill="#A1A8B0"/>
</svg>
