<svg width="167" height="163" viewBox="0 0 167 163" fill="none" xmlns="http://www.w3.org/2000/svg">
<g filter="url(#filter0_d_1_3586)">
<rect x="59" y="42" width="49" height="45" rx="16" fill="white"/>
</g>
<g clip-path="url(#clip0_1_3586)">
<path d="M94.2997 56.3447C93.6472 54.2109 92.256 52.645 90.483 52.0482C87.2142 50.948 84.5262 52.3626 83.5 53.0398C82.4737 52.3626 79.7857 50.948 76.517 52.0482C74.7435 52.6451 73.3522 54.2117 72.6998 56.3462C71.842 59.1531 72.396 62.3328 74.1819 64.8518C74.9583 65.9471 75.4833 67.1545 75.7422 68.4407C75.8572 69.0122 75.9571 69.6409 76.0392 70.3094C76.2858 72.3172 76.649 73.9287 77.1187 75.099C77.6813 76.501 78.4072 77.2581 79.2761 77.3493C79.3255 77.3545 79.3744 77.357 79.423 77.357C80.2782 77.357 80.9929 76.5514 81.549 74.9592C81.9601 73.7821 82.2841 72.2048 82.4615 70.5178C82.5606 69.5746 82.7926 68.8108 83.1321 68.309C83.2537 68.1294 83.43 68.11 83.5001 68.11C83.5702 68.11 83.7464 68.1294 83.868 68.3091C84.2076 68.8108 84.4395 69.5746 84.5386 70.5179C84.716 72.2048 85.0401 73.7822 85.4512 74.9592C86.0072 76.5515 86.7219 77.3571 87.5772 77.3571C87.6257 77.3571 87.6747 77.3545 87.7241 77.3494C88.593 77.2582 89.3188 76.501 89.8815 75.0991C90.3511 73.9287 90.7143 72.3172 90.9609 70.3095C91.043 69.6408 91.143 69.0122 91.2579 68.4411C91.5166 67.1559 92.0423 65.9472 92.8206 64.8486C94.6049 62.3296 95.1579 59.1505 94.2997 56.3447ZM91.6714 63.9519C90.7691 65.2258 90.1586 66.6317 89.8569 68.1304C89.734 68.7405 89.6277 69.4091 89.5407 70.1174C89.0387 74.2042 88.1035 75.7817 87.5906 75.8528C87.4829 75.8127 87.1144 75.441 86.7183 74.2111C86.3826 73.1688 86.114 71.7987 85.962 70.353C85.8344 69.139 85.5226 68.1585 85.0354 67.4387C84.683 66.9179 84.109 66.6071 83.5 66.6071C82.8911 66.6071 82.3171 66.9179 81.9646 67.4387C81.4774 68.1586 81.1657 69.1391 81.038 70.3531C80.886 71.7987 80.6174 73.1689 80.2818 74.2111C79.8857 75.441 79.5171 75.8128 79.4094 75.8528C78.8966 75.7818 77.9613 74.2042 77.4593 70.1174C77.3723 69.4093 77.266 68.7406 77.1431 68.1302C76.8412 66.6302 76.2314 65.2254 75.3306 63.9547C73.8201 61.824 73.3464 59.1513 74.0634 56.8054C74.5727 55.1386 75.6264 53.9264 76.9543 53.4795C78.356 53.0076 79.8015 53.0379 81.2504 53.5692C82.3571 53.9751 83.0516 54.5366 83.0568 54.5408L83.499 54.9037L83.9415 54.5422C83.9484 54.5366 84.6429 53.9751 85.7496 53.5692C87.1985 53.0378 88.6439 53.0076 90.0457 53.4795H90.0458C91.3732 53.9262 92.4268 55.138 92.9363 56.804C93.6535 59.1491 93.1806 61.8212 91.6714 63.9519Z" fill="#1D24CA"/>
</g>
<defs>
<filter id="filter0_d_1_3586" x="0" y="0" width="167" height="163" filterUnits="userSpaceOnUse" color-interpolation-filters="sRGB">
<feFlood flood-opacity="0" result="BackgroundImageFix"/>
<feColorMatrix in="SourceAlpha" type="matrix" values="0 0 0 0 0 0 0 0 0 0 0 0 0 0 0 0 0 0 127 0" result="hardAlpha"/>
<feMorphology radius="11" operator="erode" in="SourceAlpha" result="effect1_dropShadow_1_3586"/>
<feOffset dy="17"/>
<feGaussianBlur stdDeviation="35"/>
<feColorMatrix type="matrix" values="0 0 0 0 0 0 0 0 0 0 0 0 0 0 0 0 0 0 0.1 0"/>
<feBlend mode="normal" in2="BackgroundImageFix" result="effect1_dropShadow_1_3586"/>
<feBlend mode="normal" in="SourceGraphic" in2="effect1_dropShadow_1_3586" result="shape"/>
</filter>
<clipPath id="clip0_1_3586">
<rect width="24.5" height="25.7143" fill="white" transform="translate(71.25 51.6428)"/>
</clipPath>
</defs>
</svg>
