<svg width="67" height="67" viewBox="0 0 67 67" fill="none" xmlns="http://www.w3.org/2000/svg">
<path d="M36.8204 66.9908H30.1704C24.6265 66.9908 20.1335 62.4979 20.1335 56.9539V50.1525C20.1335 48.3351 18.6603 46.8573 16.8383 46.8573H10.0369C4.49298 46.8573 0 42.3643 0 36.8204V30.1704C0 24.6265 4.49298 20.1335 10.0369 20.1335H13.9379C15.3698 20.1335 16.5309 21.2946 16.5309 22.7265C16.5309 24.1584 15.3698 25.3195 13.9379 25.3195H10.0369C7.35673 25.3195 5.18137 27.4948 5.18137 30.175V36.825C5.18137 39.5052 7.35673 41.6805 10.0369 41.6805H16.8383C21.5195 41.6805 25.3195 45.4759 25.3195 50.1617V56.9631C25.3195 59.6433 27.4948 61.8186 30.175 61.8186H36.825C39.5052 61.8186 41.6805 59.6433 41.6805 56.9631V51.9332C41.6805 47.688 40.0284 43.6953 37.0269 40.6938L26.3154 29.9777C22.3364 25.9941 20.1427 20.7026 20.1427 15.0714V10.0369C20.1427 4.49298 24.6357 0 30.1796 0H36.8296C42.3735 0 46.8665 4.49298 46.8665 10.0369V16.8383C46.8665 18.6557 48.3397 20.1335 50.1617 20.1335H56.9631C62.507 20.1335 67 24.6265 67 30.1704V36.8204C67 42.3643 62.507 46.8573 56.9631 46.8573H53.0667C51.6348 46.8573 50.4737 45.6962 50.4737 44.2643C50.4737 42.8325 51.6348 41.6714 53.0667 41.6714H56.9631C59.6433 41.6714 61.8186 39.496 61.8186 36.8158V30.1658C61.8186 27.4857 59.6433 25.3103 56.9631 25.3103H50.1525C45.4714 25.3103 41.6759 21.5149 41.6759 16.8338V10.0369C41.6759 7.35674 39.5006 5.18138 36.8204 5.18138H30.1704C27.4902 5.18138 25.3149 7.35215 25.3149 10.0369V15.0669C25.3149 19.312 26.967 23.3047 29.9685 26.3062L40.6801 37.0177C44.6636 40.9967 46.8527 46.2928 46.8527 51.924V56.9539C46.8573 62.4933 42.3643 66.9908 36.8204 66.9908Z" fill="#1D24CA"/>
</svg>
