<svg width="16" height="15" viewBox="0 0 16 15" fill="none" xmlns="http://www.w3.org/2000/svg">
<path d="M12.9999 11.9209H2.99994C2.73472 11.9209 2.48037 11.8243 2.29283 11.6523C2.10529 11.4803 1.99994 11.2471 1.99994 11.0039V4.58495C1.99994 4.34175 2.10529 4.10851 2.29283 3.93654C2.48037 3.76457 2.73472 3.66796 2.99994 3.66796H4.99957L5.99956 2.29247H9.99956L10.9996 3.66796H12.9999C13.2651 3.66796 13.5195 3.76457 13.707 3.93654C13.8946 4.10851 13.9999 4.34175 13.9999 4.58495V11.0039C13.9999 11.2471 13.8946 11.4803 13.707 11.6523C13.5195 11.8243 13.2651 11.9209 12.9999 11.9209Z" stroke="#1D24CA" stroke-linecap="round" stroke-linejoin="round"/>
<path d="M7.99996 9.62845C9.2426 9.62845 10.25 8.70471 10.25 7.56522C10.25 6.42573 9.2426 5.50199 7.99996 5.50199C6.75732 5.50199 5.74996 6.42573 5.74996 7.56522C5.74996 8.70471 6.75732 9.62845 7.99996 9.62845Z" stroke="#1D24CA" stroke-linecap="round" stroke-linejoin="round"/>
</svg>
